<?xml version="1.0" encoding="utf-8"?>
<!-- Generator: Adobe Illustrator 24.3.0, SVG Export Plug-In . SVG Version: 6.00 Build 0)  -->
<svg version="1.1" xmlns="http://www.w3.org/2000/svg" xmlns:xlink="http://www.w3.org/1999/xlink" x="0px" y="0px"
	 viewBox="0 0 595.28 841.89" style="enable-background:new 0 0 595.28 841.89;" xml:space="preserve">
<style type="text/css">
	.st0{display:none;}
	.st1{display:inline;fill:url(#SVGID_1_);}
	
		.st2{display:inline;fill:none;stroke:#3D3D3B;stroke-width:0.9379;stroke-linecap:round;stroke-linejoin:round;stroke-miterlimit:10;}
	
		.st3{display:inline;fill:#CE9BAC;stroke:#CE9BAC;stroke-width:0.9379;stroke-linecap:round;stroke-linejoin:round;stroke-miterlimit:10;}
	
		.st4{display:inline;fill:#FFFFFF;stroke:#FFFFFF;stroke-width:0.8255;stroke-linecap:round;stroke-linejoin:round;stroke-miterlimit:10;}
	.st5{display:inline;fill:url(#SVGID_2_);}
	.st6{display:inline;fill:#002D30;}
	.st7{display:inline;fill:url(#SVGID_3_);}
	.st8{display:inline;fill:url(#SVGID_4_);}
	.st9{display:inline;fill:url(#SVGID_5_);}
	.st10{display:inline;fill:url(#SVGID_6_);}
	.st11{display:inline;fill:url(#SVGID_7_);}
	.st12{display:inline;fill:none;stroke:#002D30;stroke-width:0.776;stroke-miterlimit:10;}
	.st13{display:inline;fill:url(#SVGID_8_);}
	.st14{display:inline;fill:url(#SVGID_9_);}
	.st15{display:inline;fill:url(#SVGID_10_);}
	.st16{display:inline;fill:none;stroke:#702319;stroke-width:1.709;stroke-linecap:round;stroke-miterlimit:10;}
	.st17{display:inline;fill:#702319;}
	.st18{display:inline;fill:#FFF596;}
	
		.st19{display:inline;fill:#1E1E1C;stroke:#1E1E1C;stroke-width:0.8353;stroke-linecap:round;stroke-linejoin:round;stroke-miterlimit:10;}
	.st20{display:inline;fill:none;stroke:#702319;stroke-width:0.8545;stroke-linecap:round;stroke-miterlimit:10;}
	.st21{display:inline;fill:url(#SVGID_11_);}
	.st22{display:inline;fill:#1E1E1C;stroke:#1E1E1C;stroke-width:0.8353;stroke-linejoin:round;stroke-miterlimit:10;}
	.st23{display:inline;fill:url(#SVGID_12_);}
	.st24{display:inline;fill:none;stroke:#FFF596;stroke-width:0.8545;stroke-miterlimit:10;}
	.st25{display:inline;fill:url(#SVGID_13_);}
	.st26{display:inline;fill:#DCB767;}
	.st27{display:inline;fill:url(#SVGID_14_);}
	.st28{display:inline;fill:url(#SVGID_15_);}
	.st29{display:inline;fill:#1E1E1C;stroke:#1E1E1C;stroke-linejoin:round;stroke-miterlimit:10;}
	.st30{display:inline;fill:none;stroke:#0B642E;stroke-linecap:round;stroke-linejoin:round;stroke-miterlimit:10;}
	.st31{display:inline;fill:none;stroke:#DCB767;stroke-linecap:round;stroke-linejoin:round;stroke-miterlimit:10;}
	.st32{display:inline;fill:none;}
	.st33{display:inline;fill:url(#SVGID_16_);}
	.st34{display:inline;fill:url(#SVGID_17_);}
	.st35{display:inline;fill:url(#SVGID_18_);}
	.st36{display:inline;fill:url(#SVGID_19_);}
	.st37{display:inline;fill:url(#SVGID_20_);}
	.st38{display:inline;fill:url(#SVGID_21_);}
	.st39{display:inline;fill:none;stroke:#002D30;stroke-miterlimit:10;}
	.st40{display:inline;fill:url(#SVGID_22_);}
	.st41{display:inline;fill:url(#SVGID_23_);}
	.st42{display:inline;fill:url(#SVGID_24_);}
	.st43{display:inline;fill:url(#SVGID_25_);}
	.st44{display:inline;fill:none;stroke:#702319;stroke-width:3;stroke-linecap:round;stroke-miterlimit:10;}
	.st45{fill:#FDF296;}
	.st46{fill:#245054;}
	.st47{font-family:'Rowdies-Bold';}
	.st48{font-size:64px;}
</style>
<g id="JOJO" class="st0">
	<radialGradient id="SVGID_1_" cx="156.0361" cy="484.5478" r="32.0816" gradientUnits="userSpaceOnUse">
		<stop  offset="0.16" style="stop-color:#FFF596"/>
		<stop  offset="1" style="stop-color:#DCB767"/>
	</radialGradient>
	<path class="st1" d="M135.05,492.65l-13.9-0.97l5.49,6.63l-3.72-0.16l7.27,5.01l-1.78,2.75l25.21,6.63l6.41,1.03l28.71-14.41
		l-2.63-1.49l4.8-7.55l-3.89-0.69l1.83-9.38l-8.58,6.52c0,0,3.2-4.58,3.66-8.01c0.46-3.43-5.15-19.1-18.07-22.42
		c-12.93-3.32-35.23,8.01-36.38,17.5C128.35,483.13,127.45,492.11,135.05,492.65z"/>
	<line class="st2" x1="131.79" y1="497.86" x2="134.02" y2="503.6"/>
	<polygon class="st3" points="151.07,501.66 159.5,506.72 166.44,500.17 	"/>
	<path class="st4" d="M153.87,508.75l0.69,4.14c0.11,0.66,0.5,1.24,1.08,1.58l3.52,2.1c0.61,0.36,1.38,0.31,1.92-0.14l2.88-2.35
		c0.56-0.46,0.82-1.19,0.66-1.9c-0.24-1.09-0.61-2.72-0.88-3.78c-0.01-0.05-0.06-0.07-0.1-0.04c-2.18,1.19-6.96,1.01-9.68,0.31
		C153.91,508.65,153.86,508.7,153.87,508.75z"/>
	<radialGradient id="SVGID_2_" cx="143.0969" cy="490.9987" r="10.3548" gradientUnits="userSpaceOnUse">
		<stop  offset="0.16" style="stop-color:#CAE3D1"/>
		<stop  offset="1" style="stop-color:#70A491"/>
	</radialGradient>
	<polygon class="st5" points="156.25,486.01 154.52,494.53 144,497.44 129.94,484.56 154.31,493.35 	"/>
	<polygon class="st6" points="146.07,492.89 142.95,489.22 147.92,491.18 	"/>
	<radialGradient id="SVGID_3_" cx="171.4895" cy="486.4168" r="10.4157" gradientUnits="userSpaceOnUse">
		<stop  offset="0.16" style="stop-color:#CAE3D1"/>
		<stop  offset="1" style="stop-color:#70A491"/>
	</radialGradient>
	<polygon class="st7" points="159.04,484.78 164.2,493.32 183.94,478.55 175.53,494.28 164.25,492.82 	"/>
	<polygon class="st6" points="171.1,488.62 173.29,490.67 175.17,485 	"/>
	<radialGradient id="SVGID_4_" cx="133.181" cy="472.576" r="14.8453" gradientUnits="userSpaceOnUse">
		<stop  offset="0.16" style="stop-color:#FFF596"/>
		<stop  offset="1" style="stop-color:#DCB767"/>
	</radialGradient>
	<path class="st8" d="M113.39,476.39c0,0,8.16,5.13,19.54,2.38s17.57-8.48,19.86-12.3c2.29-3.82-17.38,5.65-17.38,5.65
		S125.57,478.91,113.39,476.39z"/>
	<radialGradient id="SVGID_5_" cx="134.4581" cy="424.3681" r="45.2327" gradientUnits="userSpaceOnUse">
		<stop  offset="0.16" style="stop-color:#FFF596"/>
		<stop  offset="1" style="stop-color:#DCB767"/>
	</radialGradient>
	<path class="st9" d="M164.35,458.98l0.48,2.11h-2.3l0.86,4.5l-4.98-1.25l-4.12,4.21l-2.2-4.02c0,0-9.87,11.49-23.66,8.52
		c-13.79-2.97-23.27-12.74-23.66-20.02c3.83,3.54,19.92,17.62,37.35,6.03c0,0-11.01,7.57-20.11,3.06
		c-9.1-4.5-35.06-27.43-25.24-64.06c-1.52-2.62-3.21-6.18-3.21-6.18l4.4,1.35l2.54-5.58l3.05,5.75l2.2-1.02c0,0-2.15,5.66-0.9,9.33
		c1.25,3.67,15.06,36.68,35.55,37.13c-1.19-6.83-10.24-40.23,5.64-55.96c-0.3-5.34-0.45-6.68-0.45-6.68l3.86,3.12l4.9-4.16l0.3,6.23
		l2.93,1.31c0,0-3.13,2.62-3.73,5.75s-1.82,14.64,4.44,21.2c6.26,6.56,22.71,29.73,15.14,50.17L164.35,458.98z"/>
	<radialGradient id="SVGID_6_" cx="155.1295" cy="425.2285" r="21.1773" gradientUnits="userSpaceOnUse">
		<stop  offset="0.16" style="stop-color:#CAE3D1"/>
		<stop  offset="1" style="stop-color:#70A491"/>
	</radialGradient>
	<path class="st10" d="M156.15,451.12c0,0-18.08-30.44-9.99-53.73c0.63,7.62,3.26,17.09,9.15,25.18c5.89,8.1,12.2,22.5,10.62,30.49
		l-2.84-2.42l-3.05,1.89L156.15,451.12z"/>
	<radialGradient id="SVGID_7_" cx="125.9626" cy="434.8978" r="24.3113" gradientUnits="userSpaceOnUse">
		<stop  offset="0.16" style="stop-color:#CAE3D1"/>
		<stop  offset="1" style="stop-color:#70A491"/>
	</radialGradient>
	<path class="st11" d="M135.39,458.4c-6.95-2.16-34.53-17.98-34.53-47c0,0,16.97,34.76,43,33.06l7.2,11.99l-3.96-2.4l-1.2,2.09
		l-5.06-4.38l-0.99,5.63l-4.85-3.7L135.39,458.4z"/>
	<path class="st12" d="M132.79,500.23c0,0,19.37,9.56,26.06,9s16.23-5.34,24.41-14.76"/>
	<path class="st12" d="M159.08,509.35c0.35,1.08,1.11,6.06,1.11,7.46"/>
</g>
<g id="BIBI" class="st0">
	<linearGradient id="SVGID_8_" gradientUnits="userSpaceOnUse" x1="513.424" y1="509.049" x2="513.424" y2="490.4157">
		<stop  offset="0.16" style="stop-color:#9F312A"/>
		<stop  offset="1" style="stop-color:#702319"/>
	</linearGradient>
	<path class="st13" d="M504.11,501.03l-0.66,4.64c-0.3,2.13,1.69,3.86,3.75,3.26l7.27-2.11c3.32-0.96,5.87-3.64,6.68-7l2.26-9.4
		L504.11,501.03z"/>
	<linearGradient id="SVGID_9_" gradientUnits="userSpaceOnUse" x1="501.8174" y1="438.2649" x2="525.0425" y2="438.2649">
		<stop  offset="0" style="stop-color:#702319"/>
		<stop  offset="0.84" style="stop-color:#9F312A"/>
	</linearGradient>
	<path class="st14" d="M501.82,447.37c0-3.71,6.82-23.7,23.23-23.11l-11.73,28.01l-10.3-2.27L501.82,447.37z"/>
	<linearGradient id="SVGID_10_" gradientUnits="userSpaceOnUse" x1="456.9905" y1="470.4913" x2="548.0085" y2="470.4913">
		<stop  offset="0.16" style="stop-color:#9F312A"/>
		<stop  offset="1" style="stop-color:#702319"/>
	</linearGradient>
	<path class="st15" d="M545.57,426.57l-29.51,25.26l4.88-5.31c-4.46-4.03-11.46-1.7-11.46-1.7l-9.98-5.73l2.34,7.64l-6.16-1.91
		l0.42,3.4c-21.02,3.82-20.78,38.44-20.78,38.44l-14.62,13.26l-3.73,4.07c0,0,6.04,6.44,8.32,8.22c2.28,1.78,6.24-0.2,6.24-0.2
		c1.68,2.57,4.06,2.87,6.93,1.88s12.38-7.64,12.38-7.64c13.39,1.43,24.82-8.93,32.32-15.36c7.5-6.43,5.71-20.16,5.71-20.16
		l3.39,0.26l-2.48-5.35l2.22-0.13l-3.78-8.61C557.59,448.29,545.57,426.57,545.57,426.57z"/>
	<line class="st16" x1="508.62" y1="484.8" x2="513.35" y2="495.7"/>
	<line class="st16" x1="508.19" y1="488.83" x2="513.09" y2="488.49"/>
	<line class="st17" x1="509.91" y1="493.64" x2="514.63" y2="492.87"/>
	<path class="st18" d="M493.19,488.87c0,0,13.34-2.22,16.57-4.66s8.47-9.33,6.46-17.94l-17.43,9.9
		C498.78,476.17,492.7,485.98,493.19,488.87z"/>
	<path class="st17" d="M498.73,478.91c-0.11,1.85,1.95,8.08,6.55,5.76c4.6-2.32,8.02-10.05,6.28-13.03S498.73,478.91,498.73,478.91z
		"/>
	<path class="st19" d="M500.84,478.28c0.21,1.16,3.22,3.22,5.23,2.22c2.01-1,4.23-4.91,3.33-7.61S500.84,478.28,500.84,478.28z"/>
	<line class="st20" x1="467.34" y1="504.11" x2="490.47" y2="485.02"/>
	<path class="st16" d="M489.98,494.44c-0.12,1.1-0.24,3.3-2.2,4.77c-1.96,1.47-16.23,12.8-16.23,12.8"/>
	<radialGradient id="SVGID_11_" cx="503.2213" cy="469.7658" r="11.2634" gradientUnits="userSpaceOnUse">
		<stop  offset="0.16" style="stop-color:#CAE3D1"/>
		<stop  offset="1" style="stop-color:#70A491"/>
	</radialGradient>
	<path class="st21" d="M493,481.88c-0.74-3.37,1.83-16.76,7.51-21.92c5.68-5.16,12-0.32,12.84,1.37l0.21,3.37L493,481.88z"/>
	<path class="st6" d="M493.19,488.87c0,0-2.39-12.04,7.12-17.12c8.47-4.53,12.42-8.1,13.79-10.42c0,0-0.74,4.52-1.26,5.89
		c3.05-5.05,4.1-5.79,5.37-8.31c-0.11,2.95-2.61,11.93-6.63,12.73C506.83,472.59,496.87,480.45,493.19,488.87z"/>
	<line class="st16" x1="495.83" y1="457.74" x2="501.32" y2="471.05"/>
	<line class="st16" x1="493.78" y1="462.27" x2="501.17" y2="460.98"/>
	<line class="st16" x1="496.6" y1="468.91" x2="502.44" y2="467.7"/>
	<path class="st22" d="M455.92,500.89l11.67,0.16c0,0,0.32,5.16-2.3,5.16s-6.11-0.16-7.22-0.16
		C456.95,506.05,455.76,504.06,455.92,500.89z"/>
	<radialGradient id="SVGID_12_" cx="533.1977" cy="451.7815" r="1.602" gradientUnits="userSpaceOnUse">
		<stop  offset="0.16" style="stop-color:#CAE3D1"/>
		<stop  offset="1" style="stop-color:#70A491"/>
	</radialGradient>
	<circle class="st23" cx="533.2" cy="451.78" r="1.6"/>
	<path class="st24" d="M528.16,453.18c-1.14-0.39-2.45-0.22-3.44,0.61c-1.52,1.26-1.73,3.5-0.47,5.02c1.26,1.52,3.5,1.73,5.02,0.47
		c0.94-0.78,1.38-1.94,1.28-3.07"/>
	<circle class="st17" cx="500.84" cy="494.44" r="3.9"/>
</g>
<g id="TOTO" class="st0">
	<linearGradient id="SVGID_13_" gradientUnits="userSpaceOnUse" x1="414.447" y1="500.5777" x2="414.447" y2="470.8967">
		<stop  offset="0" style="stop-color:#DCB767"/>
		<stop  offset="0.84" style="stop-color:#FFF596"/>
	</linearGradient>
	<path class="st25" d="M407.38,473.62c1.25,0.38,5.18,2.28,8.69-0.76c3.51-3.04,10.36-2.98,9.17,3.29
		c-1.19,6.27-13.4,22.18-15.96,24.27s-5.78-17.36-5.78-17.36L407.38,473.62z"/>
	<path class="st26" d="M403.51,468.17c0.31,3.74,1.08,10,9.69,7.62c8.6-2.38,10.54-10.62,10.38-13.54S403.51,468.17,403.51,468.17z"
		/>
	<linearGradient id="SVGID_14_" gradientUnits="userSpaceOnUse" x1="391.4225" y1="521.9188" x2="391.4225" y2="476.9117">
		<stop  offset="0" style="stop-color:#DCB767"/>
		<stop  offset="0.84" style="stop-color:#FFF596"/>
	</linearGradient>
	<path class="st27" d="M378.26,514.68l-5.69-10.9l12.16-26.88l19.7,1.2c0,0,7.85,1.29,1.98,7.76c1.71,3.24,4.95,13.04,3.47,16.65
		c-1.48,3.61-3.92,6.75-6.12,7.68c0.02,2.22,0.94,5.18-4.6,7.95c-0.19,1-5.18,4.85-11.65,3.46
		C381.04,520.23,379.09,516.81,378.26,514.68z"/>
	<linearGradient id="SVGID_15_" gradientUnits="userSpaceOnUse" x1="382.4542" y1="503.787" x2="382.4542" y2="451.6186">
		<stop  offset="0" style="stop-color:#DCB767"/>
		<stop  offset="0.84" style="stop-color:#FFF596"/>
	</linearGradient>
	<path class="st28" d="M372.58,503.79c1.68-0.45,9.29-2.46,8.96-8.4s-2.35-13.43,4.48-13.77c6.83-0.34,19.26,0.45,22.61-0.22
		s-2.69-5.82-3.13-8.28c-0.45-2.46-0.67-12.65-0.9-14.44c-0.22-1.79-1.34-7.05-6.72-7.05c-5.37,0-11.19,0.56-11.19,0.56
		s-21.16,17.69-25.08,19.37c-3.92,1.68-9.18,8.84-4.48,15C361.83,492.7,372.58,503.79,372.58,503.79z"/>
	<path class="st29" d="M368.18,458.43c-0.62,0.99,0.2,2.52,1.29,2.45s2.11-2.18,0.95-2.79
		C369.27,457.48,368.52,457.89,368.18,458.43z"/>
	<path class="st6" d="M405.47,467.69c2.38,0.68,16.54,1.57,17.42-7.42c0.88-8.98-4.42-8.85-4.42-8.85l-15.04,7.55L405.47,467.69z"/>
	<path class="st26" d="M399.35,452.08c0.68-0.99,10.22-7.06,17.18-5.25c6.96,1.81,9.24,5.43,5.97,7.82
		c-3.26,2.39-18.84,5.25-18.84,5.25L399.35,452.08z"/>
	<path class="st30" d="M386.91,510.89"/>
	<path class="st31" d="M386.84,511.26c1.05,0.44,11.8,2.59,16.49-0.22"/>
	<path class="st31" d="M383.37,514.3c1.49,1.16,8.72,7.06,15.39,3.53"/>
	<path class="st32" d="M387.12,523.34c0.88,0.33,2.87,0.99,4.41,1.21"/>
	<linearGradient id="SVGID_16_" gradientUnits="userSpaceOnUse" x1="400.5757" y1="444.5837" x2="427.3107" y2="444.5837">
		<stop  offset="0" style="stop-color:#003235"/>
		<stop  offset="0.2022" style="stop-color:#023437"/>
		<stop  offset="0.3593" style="stop-color:#0A3B3D"/>
		<stop  offset="0.5013" style="stop-color:#184748"/>
		<stop  offset="0.6343" style="stop-color:#2B5957"/>
		<stop  offset="0.761" style="stop-color:#44756D"/>
		<stop  offset="0.8814" style="stop-color:#699A8A"/>
		<stop  offset="0.9977" style="stop-color:#99CDAF"/>
		<stop  offset="1" style="stop-color:#9ACFB0"/>
	</linearGradient>
	<polygon class="st33" points="400.58,453.19 424.63,435.97 422.87,440.41 426.96,440.41 424.74,443.27 427.31,445.55 	"/>
	<linearGradient id="SVGID_17_" gradientUnits="userSpaceOnUse" x1="363.0418" y1="442.2196" x2="388.7844" y2="442.2196">
		<stop  offset="0" style="stop-color:#003235"/>
		<stop  offset="0.2022" style="stop-color:#023437"/>
		<stop  offset="0.3593" style="stop-color:#0A3B3D"/>
		<stop  offset="0.5013" style="stop-color:#184748"/>
		<stop  offset="0.6343" style="stop-color:#2B5957"/>
		<stop  offset="0.761" style="stop-color:#44756D"/>
		<stop  offset="0.8814" style="stop-color:#699A8A"/>
		<stop  offset="0.9977" style="stop-color:#99CDAF"/>
		<stop  offset="1" style="stop-color:#9ACFB0"/>
	</linearGradient>
	<polygon class="st34" points="388.78,453.95 363.04,438.19 368,438.66 366.78,433 371.56,435.86 371.62,430.49 	"/>
	<path class="st6" d="M360.56,458.84c1.07-2.39,5.58-8.03,11.09-7.28s8.85,4.42,9.66,7.96c0.82,3.54,0.27,10.55-10.07,9.73
		S358.79,462.79,360.56,458.84z"/>
	<path class="st26" d="M361.44,465.78c-0.27,1.57-1.16,15.38,9.46,13.88c10.62-1.5,13.2-10.28,8.91-15.18
		C375.53,459.59,361.44,465.78,361.44,465.78z"/>
	<path class="st26" d="M382.77,460.55c-1.25-0.72-7.76-7.41-11.38-7.41s-9.34,3.74-9.92,4.49s-2.33-1.05-1.05-4.14
		c1.28-3.09,5.95-9.22,11.67-9.22c5.72,0,14.53,7.94,15.24,9.75C388.03,455.82,387.15,463.06,382.77,460.55z"/>
	<circle class="st29" cx="390.79" cy="467.85" r="1.47"/>
	<circle class="st29" cx="398.76" cy="468.09" r="1.52"/>
	<radialGradient id="SVGID_18_" cx="369.4529" cy="458.2783" r="1.4667" gradientUnits="userSpaceOnUse">
		<stop  offset="0.16" style="stop-color:#CAE3D1"/>
		<stop  offset="1" style="stop-color:#70A491"/>
	</radialGradient>
	<circle class="st35" cx="369.45" cy="458.28" r="1.47"/>
	<radialGradient id="SVGID_19_" cx="410.2687" cy="460.4062" r="1.4667" gradientUnits="userSpaceOnUse">
		<stop  offset="0.16" style="stop-color:#CAE3D1"/>
		<stop  offset="1" style="stop-color:#70A491"/>
	</radialGradient>
	<circle class="st36" cx="410.27" cy="460.41" r="1.47"/>
</g>
<g id="BOOH" class="st0">
	<linearGradient id="SVGID_20_" gradientUnits="userSpaceOnUse" x1="237.9926" y1="455.0385" x2="317.835" y2="455.0385">
		<stop  offset="0" style="stop-color:#702319"/>
		<stop  offset="0.5932" style="stop-color:#9E3129"/>
		<stop  offset="1" style="stop-color:#702319"/>
	</linearGradient>
	<path class="st37" d="M239.75,456.61l-1.76-27.09l5.8,5.08l2.8-4.23l1.76,8.21c0,0,13.68,12.89,14.59,13.68
		c1.11-1.17,5.34-4.95,11.53-0.2c3.78-1.82,11.92-2.47,15.04,0.78c3.32-2.21,17.39-13.87,17.39-13.87l2.47-4.49l1.69,3.32l6.64-3.58
		l-2.21,7.81l2.34,0.2l-3.06,3.06l-3.32,12.11l-34.54,16.46l-13.43,6.71L239.75,456.61z"/>
	<path class="st17" d="M257.24,512.3c-7.51-3.89-17.67-9.39-26.44-14.97c-0.33-3.3-0.4-3.65-0.4-3.65l-6.52-1.8l4.86-2.71
		l-2.98-6.38l5.27,1.94l8.19-9.3l64.28-6.81l11.54,10.08l4.53-1.71l-1.03,4.19l2.4,2.4l-3.16,0.51l0.94,3.85l-5.82-1.45
		l-34.87,24.42C271.88,515.21,263.88,515.74,257.24,512.3z"/>
	<radialGradient id="SVGID_21_" cx="267.7715" cy="490.2693" r="16.7657" gradientUnits="userSpaceOnUse">
		<stop  offset="0.16" style="stop-color:#FFF596"/>
		<stop  offset="1" style="stop-color:#DCB767"/>
	</radialGradient>
	<circle class="st38" cx="267.77" cy="490.27" r="16.77"/>
	<polyline class="st39" points="267.88,478.45 267.61,489.96 272.84,495.51 	"/>
	<line class="st39" x1="262.27" y1="495.62" x2="267.61" y2="489.96"/>
	<path class="st39" d="M255.76,477.2c1.05,1.69,5.62,8.16,11.84,8.2c6.23,0.04,10.27-2.34,12.99-5.68"/>
	<radialGradient id="SVGID_22_" cx="247.8932" cy="469.1278" r="17.4183" gradientUnits="userSpaceOnUse">
		<stop  offset="0.16" style="stop-color:#CAE3D1"/>
		<stop  offset="1" style="stop-color:#70A491"/>
	</radialGradient>
	<polygon class="st40" points="251.57,485.97 241.62,481.79 229.92,452.28 264.9,467.31 265.87,472.35 257.28,482.22 	"/>
	<polygon class="st6" points="245.35,466.84 245.67,471.49 253.49,473.33 	"/>
	<radialGradient id="SVGID_23_" cx="248.2881" cy="447.4478" r="7.6393" gradientUnits="userSpaceOnUse">
		<stop  offset="0.16" style="stop-color:#FFF596"/>
		<stop  offset="1" style="stop-color:#DCB767"/>
	</radialGradient>
	<polygon class="st41" points="241.99,438.67 244.95,456.23 246.26,452.06 250.12,453.67 250.17,449 254.58,449.96 	"/>
	<radialGradient id="SVGID_24_" cx="304.8271" cy="450.7793" r="8.0595" gradientUnits="userSpaceOnUse">
		<stop  offset="0.16" style="stop-color:#FFF596"/>
		<stop  offset="1" style="stop-color:#DCB767"/>
	</radialGradient>
	<polygon class="st42" points="297.18,453.92 312.48,442.33 304.91,459.23 303.37,456.91 300.79,457.17 300.79,453.82 	"/>
	<radialGradient id="SVGID_25_" cx="292.635" cy="473.1132" r="18.1115" gradientUnits="userSpaceOnUse">
		<stop  offset="0.16" style="stop-color:#CAE3D1"/>
		<stop  offset="1" style="stop-color:#70A491"/>
	</radialGradient>
	<polygon class="st43" points="272.64,474.68 274.42,466.04 312.63,457.1 294.49,483.49 284.73,489.12 	"/>
	<polygon class="st6" points="285.5,474.61 293.26,468.37 293.07,472.7 	"/>
	<path class="st6" d="M268.28,478.18c2.09,0.02,5.63-4.65,6.16-5.46c0.53-0.81-4.32-1.49-5.87-1.48s-5.86,0.72-6.62,1.06
		S266.31,478.16,268.28,478.18z"/>
	<line class="st44" x1="245.92" y1="446.81" x2="261.87" y2="460.02"/>
	<line class="st44" x1="290.1" y1="447.45" x2="274.15" y2="460.66"/>
</g>
<g id="CHOOSE">
	<polygon class="st45" points="453.05,373.61 159.57,373.61 85.87,326.86 159.57,280.11 453.05,280.11 	"/>
	<text transform="matrix(0.9073 0 0 1 184.8904 348.4936)" class="st46 st47 st48">CHOIX</text>
</g>
</svg>
